<?xml version="1.0" encoding="UTF-8" standalone="no"?>
<svg
   version="1.1"
   width="1360px"
   height="1319px"
   style="shape-rendering:geometricPrecision; text-rendering:geometricPrecision; image-rendering:optimizeQuality; fill-rule:evenodd; clip-rule:evenodd"
   id="svg58"
   sodipodi:docname="Michiblue-1.svg"
   inkscape:version="1.4.2 (ebf0e940d0, 2025-05-08)"
   xmlns:inkscape="http://www.inkscape.org/namespaces/inkscape"
   xmlns:sodipodi="http://sodipodi.sourceforge.net/DTD/sodipodi-0.dtd"
   xmlns="http://www.w3.org/2000/svg"
   xmlns:svg="http://www.w3.org/2000/svg">
  <defs
     id="defs58" />
  <sodipodi:namedview
     id="namedview58"
     pagecolor="#505050"
     bordercolor="#eeeeee"
     borderopacity="1"
     inkscape:showpageshadow="0"
     inkscape:pageopacity="0"
     inkscape:pagecheckerboard="0"
     inkscape:deskcolor="#505050"
     inkscape:zoom="0.43477149"
     inkscape:cx="553.16414"
     inkscape:cy="921.17355"
     inkscape:window-width="1920"
     inkscape:window-height="1015"
     inkscape:window-x="0"
     inkscape:window-y="0"
     inkscape:window-maximized="1"
     inkscape:current-layer="svg58" />
  <g
     id="g2">
    <path
       style="opacity:1"
       fill="#0b7d14"
       d="M 1023.5,218.5 C 1026.11,240.419 1027.44,262.419 1027.5,284.5C 1026.64,316.892 1025.14,349.225 1023,381.5C 1059.95,419.745 1082.29,465.412 1090,518.5C 1092.76,535.736 1094.6,553.069 1095.5,570.5C 1095.87,646.843 1092.54,723.176 1085.5,799.5C 1085.5,802.025 1085.84,804.359 1086.5,806.5C 1081.52,858.74 1070.69,909.74 1054,959.5C 1023.21,1040.95 966.713,1096.12 884.5,1125C 837.411,1140.69 789.078,1149.86 739.5,1152.5C 710.008,1152.48 680.341,1152.31 650.5,1152C 637.983,1151.42 625.483,1150.59 613,1149.5C 610.639,1149.5 608.473,1149.84 606.5,1150.5C 557.938,1146.35 510.938,1135.52 465.5,1118C 411.551,1095.96 368.384,1060.79 336,1012.5C 328.317,1000.47 321.15,988.133 314.5,975.5C 302.865,949.432 292.698,922.766 284,895.5C 277.555,870.689 272.055,846.356 267.5,822.5C 261.021,781.9 257.355,740.9 256.5,699.5C 256.792,653.838 259.458,608.172 264.5,562.5C 264.493,560.631 264.16,558.964 263.5,557.5C 269.191,507.244 286.025,461.244 314,419.5C 322.621,407.943 331.955,396.943 342,386.5C 336.253,348.574 334.42,310.574 336.5,272.5C 336.338,274.527 336.505,276.527 337,278.5C 337.44,250.207 340.44,222.207 346,194.5C 347.673,187.493 350.173,180.826 353.5,174.5C 355.321,170.515 358.321,167.681 362.5,166C 368.3,163.849 374.3,163.016 380.5,163.5C 392.796,167.591 403.796,174.091 413.5,183C 449.922,219.233 481.589,259.066 508.5,302.5C 529.567,297.322 550.9,293.656 572.5,291.5C 573.793,292.158 575.293,292.492 577,292.5C 641.235,284.687 705.569,283.687 770,289.5C 772.033,289.494 773.866,289.161 775.5,288.5C 802.664,291.547 829.664,295.381 856.5,300C 884.213,254.601 917.546,213.601 956.5,177C 962.899,171.801 969.899,167.635 977.5,164.5C 989.915,160.62 1000.41,163.62 1009,173.5C 1016.76,187.52 1021.59,202.52 1023.5,218.5 Z"
       id="path2" />
  </g>
  <g
     id="g3">
    <path
       style="opacity:1"
       fill="#186a15"
       d="M 353.5,174.5 C 350.173,180.826 347.673,187.493 346,194.5C 340.44,222.207 337.44,250.207 337,278.5C 336.505,276.527 336.338,274.527 336.5,272.5C 336.273,251.005 337.94,229.672 341.5,208.5C 342.944,199.998 345.111,191.664 348,183.5C 349.357,180.102 351.19,177.102 353.5,174.5 Z"
       id="path3" />
  </g>
  <g
     id="g4">
    <path
       style="opacity:1"
       fill="#bbda46"
       d="M 466.5,313.5 C 451.31,291.123 433.643,270.623 413.5,252C 408.516,247.823 402.849,245.323 396.5,244.5C 390.277,244.546 386.11,247.546 384,253.5C 382.362,258.871 381.195,264.204 380.5,269.5C 379.782,275.795 379.449,284.129 379.5,294.5C 379.5,308.52 380,322.52 381,336.5C 381.497,333.854 381.664,331.187 381.5,328.5C 382.373,336.669 383.039,345.003 383.5,353.5C 375.259,359.06 367.259,365.06 359.5,371.5C 357.908,359.55 356.741,347.55 356,335.5C 355.333,308.833 355.333,282.167 356,255.5C 357.386,232.238 361.719,209.571 369,187.5C 369.465,186.069 370.299,184.903 371.5,184C 374.928,183.299 378.262,183.632 381.5,185C 388.115,189.281 394.448,193.947 400.5,199C 433.674,231.819 462.674,267.819 487.5,307C 480.441,309.076 473.441,311.243 466.5,313.5 Z"
       id="path4" />
  </g>
  <g
     id="g5">
    <path
       style="opacity:1"
       fill="#bbda46"
       d="M 979.5,347.5 C 979.19,344.287 979.523,341.287 980.5,338.5C 982.413,326.732 983.413,310.898 983.5,291C 983.333,283.833 983.167,276.667 983,269.5C 982.829,278.01 982.329,286.343 981.5,294.5C 981.667,283.495 981.5,272.495 981,261.5C 979.522,249.667 973.022,244.167 961.5,245C 956.698,246.901 952.364,249.568 948.5,253C 930.125,271.196 913.458,290.696 898.5,311.5C 891.535,309.675 884.535,308.009 877.5,306.5C 878.352,303.777 879.519,301.11 881,298.5C 906.054,260.095 935.554,225.262 969.5,194C 973.5,191.333 977.5,188.667 981.5,186C 986.356,183.504 990.522,184.338 994,188.5C 999.059,201.734 1002.39,215.401 1004,229.5C 1007.36,274.515 1007.19,319.515 1003.5,364.5C 995.459,358.776 987.459,353.109 979.5,347.5 Z"
       id="path5" />
  </g>
  <g
     id="g7">
    <path
       style="opacity:1"
       fill="#f2646d"
       d="M 981.5,294.5 C 981.372,309.172 981.038,323.839 980.5,338.5C 979.523,341.287 979.19,344.287 979.5,347.5C 953.553,333.024 926.553,321.024 898.5,311.5C 913.458,290.696 930.125,271.196 948.5,253C 952.364,249.568 956.698,246.901 961.5,245C 973.022,244.167 979.522,249.667 981,261.5C 981.5,272.495 981.667,283.495 981.5,294.5 Z"
       id="path7" />
  </g>
  <g
     id="g8">
    <path
       style="opacity:1"
       fill="#156b13"
       d="M 775.5,288.5 C 773.866,289.161 772.033,289.494 770,289.5C 705.569,283.687 641.235,284.687 577,292.5C 575.293,292.492 573.793,292.158 572.5,291.5C 640.05,283.393 707.716,282.393 775.5,288.5 Z"
       id="path8" />
  </g>
  <g
     id="g9">
    <path
       style="opacity:1"
       fill="#f2646c"
       d="M 466.5,313.5 C 437.407,323.88 409.74,337.213 383.5,353.5C 383.039,345.003 382.373,336.669 381.5,328.5C 380.708,308.844 380.374,289.177 380.5,269.5C 381.195,264.204 382.362,258.871 384,253.5C 386.11,247.546 390.277,244.546 396.5,244.5C 402.849,245.323 408.516,247.823 413.5,252C 433.643,270.623 451.31,291.123 466.5,313.5 Z"
       id="path9" />
  </g>
  <g
     id="g10">
    <path
       style="opacity:1"
       fill="#f7f8f7"
       d="M 1075.5,666.5 C 1074.42,695.179 1073.08,723.846 1071.5,752.5C 1070.43,759.317 1069.77,766.317 1069.5,773.5C 1065.33,833.514 1054.16,892.181 1036,949.5C 1030.31,964.541 1023.81,979.208 1016.5,993.5C 985.373,1045.27 941.373,1081.77 884.5,1103C 831.795,1121.63 777.461,1131.63 721.5,1133C 700.503,1133.5 679.503,1133.67 658.5,1133.5C 625.966,1132.63 593.633,1129.63 561.5,1124.5C 527.128,1118.07 493.794,1107.9 461.5,1094C 422.468,1076.29 389.968,1050.46 364,1016.5C 335.049,977.259 314.049,933.925 301,886.5C 288.12,839.01 280.454,790.677 278,741.5C 275.523,689.788 276.19,638.121 280,586.5C 283.03,547.049 292.03,509.049 307,472.5C 328.696,426.142 361.529,389.975 405.5,364C 459.958,333.85 518.291,316.183 580.5,311C 670.319,299.854 759.652,302.854 848.5,320C 896.588,329.8 941.255,347.8 982.5,374C 1028.79,408.027 1057.29,453.527 1068,510.5C 1072.06,531.991 1074.73,553.658 1076,575.5C 1076.75,605.844 1076.58,636.177 1075.5,666.5 Z"
       id="path10" />
  </g>
  <g
     id="g11">
    <path
       style="opacity:1"
       fill="#b0f13b"
       d="M 380.5,269.5 C 380.374,289.177 380.708,308.844 381.5,328.5C 381.664,331.187 381.497,333.854 381,336.5C 380,322.52 379.5,308.52 379.5,294.5C 379.449,284.129 379.782,275.795 380.5,269.5 Z"
       id="path11" />
  </g>
  <g
     id="g12">
    <path
       style="opacity:1"
       fill="#b0ed3d"
       d="M 980.5,338.5 C 981.038,323.839 981.372,309.172 981.5,294.5C 982.329,286.343 982.829,278.01 983,269.5C 983.167,276.667 983.333,283.833 983.5,291C 983.413,310.898 982.413,326.732 980.5,338.5 Z"
       id="path12" />
  </g>
  <g
     id="g13">
    <path
       style="opacity:1"
       fill="#025b81"
       d="M 525.5,349.5 C 545.782,348.616 554.949,358.282 553,378.5C 550.969,386.867 545.802,392.367 537.5,395C 516.719,396.885 507.219,387.385 509,366.5C 512.019,358.316 517.519,352.649 525.5,349.5 Z"
       id="path13" />
  </g>
  <g
     id="g14">
    <path
       style="opacity:1"
       fill="#025b82"
       d="M 971.5,405.5 C 992.989,406.487 1001.49,417.487 997,438.5C 990.346,450.054 980.513,454.221 967.5,451C 955.928,445.018 951.428,435.518 954,422.5C 957.207,414.006 963.04,408.339 971.5,405.5 Z"
       id="path14" />
  </g>
  <g
     id="g15">
    <path
       style="opacity:1"
       fill="#025c82"
       d="M 433.5,403.5 C 447.781,402.056 459.281,407.056 468,418.5C 483.622,441.526 493.456,466.859 497.5,494.5C 497.44,508.729 490.44,515.563 476.5,515C 470.364,511.915 466.198,507.081 464,500.5C 459.262,482.696 451.595,466.362 441,451.5C 437.905,447.673 434.905,447.673 432,451.5C 430.601,454.363 429.601,457.363 429,460.5C 429.103,473.876 429.769,487.209 431,500.5C 427.72,509.889 421.22,513.056 411.5,510C 409.5,509 407.5,508 405.5,507C 398.223,498.389 391.723,489.222 386,479.5C 383.833,477.333 381.667,475.167 379.5,473C 371.684,469.496 366.184,471.663 363,479.5C 362.333,487.167 362.333,494.833 363,502.5C 366.189,516.068 370.189,529.401 375,542.5C 376.889,554.771 371.722,561.771 359.5,563.5C 353.738,563.033 349.238,560.367 346,555.5C 335.537,538.002 329.537,519.002 328,498.5C 325.215,477.187 331.381,459.021 346.5,444C 357.659,434.457 369.992,432.457 383.5,438C 389.363,441.098 394.696,444.931 399.5,449.5C 400.43,437.423 404.264,426.423 411,416.5C 417.216,409.75 424.716,405.416 433.5,403.5 Z"
       id="path15" />
  </g>
  <g
     id="g16">
    <path
       style="opacity:1"
       fill="#015c83"
       d="M 650.5,368.5 C 659.9,368.114 669.234,368.614 678.5,370C 695.72,374.934 700.553,385.434 693,401.5C 690.736,404.433 687.902,406.6 684.5,408C 673.896,410.146 663.896,413.813 654.5,419C 641.104,430.471 640.104,442.804 651.5,456C 657.651,460.271 664.485,462.104 672,461.5C 680.84,460.706 689.674,460.206 698.5,460C 711.783,465.063 715.949,474.23 711,487.5C 701.098,497.809 688.931,503.309 674.5,504C 620.169,506.669 594.002,480.835 596,426.5C 601.717,395.287 619.884,375.954 650.5,368.5 Z"
       id="path16" />
  </g>
  <g
     id="g17">
    <path
       style="opacity:1"
       fill="#065b83"
       d="M 788.5,357.5 C 812.191,357.854 822.691,369.854 820,393.5C 817.848,401.448 816.015,409.448 814.5,417.5C 826.079,420.269 837.579,423.269 849,426.5C 854.061,415.378 859.394,404.378 865,393.5C 874.632,383.107 886.132,380.607 899.5,386C 908.67,390.854 913.337,398.521 913.5,409C 912.533,416.369 910.699,423.536 908,430.5C 896.608,458.008 885.608,485.674 875,513.5C 866.052,530.15 852.885,534.65 835.5,527C 827.699,520.949 823.699,512.949 823.5,503C 825.286,493.664 827.453,484.497 830,475.5C 819.736,472.712 809.403,470.045 799,467.5C 795.301,474.565 791.968,481.899 789,489.5C 780.026,505.917 767.193,510.083 750.5,502C 741.569,493.804 738.069,483.637 740,471.5C 749.341,436.145 760.674,401.479 774,367.5C 777.977,362.774 782.811,359.441 788.5,357.5 Z"
       id="path17" />
  </g>
  <g
     id="g18">
    <path
       style="opacity:1"
       fill="#f36b75"
       d="M 789.5,372.5 C 804.2,372.719 809.7,380.052 806,394.5C 804.109,403.173 801.609,411.673 798.5,420C 801.247,426.048 805.914,429.714 812.5,431C 825.253,434.022 837.92,437.355 850.5,441C 853.742,441.986 856.408,441.152 858.5,438.5C 862.333,429.5 866.167,420.5 870,411.5C 872.042,404.879 875.875,399.713 881.5,396C 898.053,395.295 903.886,402.795 899,418.5C 886.057,449.386 873.39,480.386 861,511.5C 854.906,518.366 848.072,519.199 840.5,514C 836.809,509.827 835.642,504.993 837,499.5C 840.237,490.455 843.071,481.288 845.5,472C 843.846,467.68 840.846,464.68 836.5,463C 824.046,460.47 811.713,457.47 799.5,454C 793.049,451.822 788.882,453.989 787,460.5C 783.861,468.249 780.528,475.916 777,483.5C 770.409,493.891 762.742,494.891 754,486.5C 752.543,482.259 752.209,477.926 753,473.5C 762.802,441.761 772.802,410.095 783,378.5C 784.494,375.686 786.66,373.686 789.5,372.5 Z"
       id="path18" />
  </g>
  <g
     id="g19">
    <path
       style="opacity:1"
       fill="#015b82"
       d="M 945.5,461.5 C 961.047,461.545 968.547,469.211 968,484.5C 962.692,505.09 955.026,524.757 945,543.5C 934.396,558.425 922.396,559.425 909,546.5C 905.734,541.262 904.734,535.595 906,529.5C 914.08,508.674 923.747,488.674 935,469.5C 937.975,465.952 941.475,463.286 945.5,461.5 Z"
       id="path19" />
  </g>
  <g
     id="g20">
    <path
       style="opacity:1"
       fill="#085b82"
       d="M 533.5,409.5 C 550.597,409.077 560.764,417.41 564,434.5C 568.2,453.629 570.2,472.963 570,492.5C 565.764,505.209 556.931,510.709 543.5,509C 535.099,506.932 529.599,501.766 527,493.5C 520.677,470.596 518.011,447.262 519,423.5C 521.774,416.557 526.607,411.89 533.5,409.5 Z"
       id="path20" />
  </g>
  <g
     id="g21">
    <path
       style="opacity:1"
       fill="#f46c75"
       d="M 538.5,422.5 C 543.919,421.959 547.419,424.293 549,429.5C 554.497,449.147 557.164,469.147 557,489.5C 554.684,493.412 551.184,495.412 546.5,495.5C 541.8,494.299 538.966,491.299 538,486.5C 533.977,467.676 531.644,448.676 531,429.5C 532.742,426.254 535.242,423.921 538.5,422.5 Z"
       id="path21" />
  </g>
  <g
     id="g22">
    <path
       style="opacity:1"
       fill="#10680f"
       d="M 263.5,557.5 C 264.16,558.964 264.493,560.631 264.5,562.5C 259.458,608.172 256.792,653.838 256.5,699.5C 255.141,651.966 257.474,604.632 263.5,557.5 Z"
       id="path22" />
  </g>
  <g
     id="g23">
    <path
       style="opacity:1"
       fill="#0e7e14"
       d="M 619.5,850.5 C 562.861,848.027 502.194,846.194 437.5,845C 436.874,844.25 436.374,843.416 436,842.5C 435.601,842.728 435.435,843.062 435.5,843.5C 426.049,803.085 427.883,763.085 441,723.5C 445.7,711.294 454.533,704.627 467.5,703.5C 457.687,665.449 466.52,632.449 494,604.5C 498.167,577.831 504.834,551.831 514,526.5C 517.71,521.112 522.21,520.278 527.5,524C 545.384,539.217 560.384,556.884 572.5,577C 605.656,577.04 637.323,583.873 667.5,597.5C 684.787,587.357 702.787,578.524 721.5,571C 727.121,569.178 732.788,567.511 738.5,566C 742.956,565.133 747.289,565.466 751.5,567C 753.444,568.722 754.444,570.889 754.5,573.5C 750.486,596.048 742.819,617.214 731.5,637C 794.956,643.797 837.123,677.297 858,737.5C 873.604,808.443 845.77,851.276 774.5,866C 745.429,870.842 717.096,868.175 689.5,858C 686.497,856.834 683.83,855.167 681.5,853C 660.676,852.105 640.009,851.272 619.5,850.5 Z"
       id="path23" />
  </g>
  <g
     id="g24">
    <path
       style="opacity:1"
       fill="#fdb5c5"
       d="M 573.5,589.5 C 567.416,598.25 564.916,607.917 566,618.5C 568.834,622.417 572.334,623.251 576.5,621C 584.562,612.376 589.562,602.209 591.5,590.5C 596.731,590.444 601.731,591.111 606.5,592.5C 598.596,603.023 595.763,614.69 598,627.5C 600.679,630.835 603.845,631.335 607.5,629C 617.004,619.826 622.671,608.659 624.5,595.5C 628.891,596.681 633.224,598.014 637.5,599.5C 631.06,609.596 628.56,620.596 630,632.5C 631.124,637.115 633.957,638.615 638.5,637C 647.939,628.968 653.939,618.801 656.5,606.5C 660.941,610.014 665.941,611.181 671.5,610C 692.405,596.469 714.738,585.802 738.5,578C 739.944,577.219 741.277,577.386 742.5,578.5C 736.052,602.69 726.219,625.357 713,646.5C 712.333,649.167 712.333,651.833 713,654.5C 726.459,697.789 714.293,731.956 676.5,757C 670.292,760.521 663.792,763.354 657,765.5C 624.394,743.39 588.561,734.89 549.5,740C 532.157,717.16 509.157,704.493 480.5,702C 472.506,681.71 473.006,661.544 482,641.5C 484.826,635.178 488.159,629.178 492,623.5C 496.701,619.134 501.034,614.467 505,609.5C 509.239,584.543 514.739,559.877 521.5,535.5C 522.552,535.351 523.552,535.517 524.5,536C 539.244,551.069 552.077,567.569 563,585.5C 565.697,588.87 569.197,590.204 573.5,589.5 Z"
       id="path24" />
  </g>
  <g
     id="g25">
    <path
       style="opacity:1"
       fill="#f36e78"
       d="M 526.5,563.5 C 530.746,564.044 534.246,566.044 537,569.5C 541.992,575.827 546.159,582.66 549.5,590C 538.679,593.534 528.012,597.367 517.5,601.5C 518.371,588.241 521.371,575.574 526.5,563.5 Z"
       id="path25" />
  </g>
  <g
     id="g26">
    <path
       style="opacity:1"
       fill="#085b83"
       d="M 573.5,589.5 C 579.591,589.211 585.591,589.545 591.5,590.5C 589.562,602.209 584.562,612.376 576.5,621C 572.334,623.251 568.834,622.417 566,618.5C 564.916,607.917 567.416,598.25 573.5,589.5 Z"
       id="path26" />
  </g>
  <g
     id="g27">
    <path
       style="opacity:1"
       fill="#065b83"
       d="M 606.5,592.5 C 612.594,592.986 618.594,593.986 624.5,595.5C 622.671,608.659 617.004,619.826 607.5,629C 603.845,631.335 600.679,630.835 598,627.5C 595.763,614.69 598.596,603.023 606.5,592.5 Z"
       id="path27" />
  </g>
  <g
     id="g28">
    <path
       style="opacity:1"
       fill="#055b83"
       d="M 637.5,599.5 C 643.947,601.558 650.28,603.891 656.5,606.5C 653.939,618.801 647.939,628.968 638.5,637C 633.957,638.615 631.124,637.115 630,632.5C 628.56,620.596 631.06,609.596 637.5,599.5 Z"
       id="path28" />
  </g>
  <g
     id="g29">
    <path
       style="opacity:1"
       fill="#f36e78"
       d="M 715.5,600.5 C 718.571,599.925 720.571,601.091 721.5,604C 717.664,616.506 712.33,628.339 705.5,639.5C 699.018,631.185 691.685,623.685 683.5,617C 694.071,611.215 704.738,605.715 715.5,600.5 Z"
       id="path29" />
  </g>
  <g
     id="g30">
    <path
       style="opacity:1"
       fill="#095881"
       d="M 516.5,653.5 C 518.467,653.261 520.301,653.594 522,654.5C 523.331,659.15 524.665,663.817 526,668.5C 527.731,670.617 529.898,672.117 532.5,673C 542.813,676.018 550.313,672.852 555,663.5C 561.082,660.566 563.415,662.566 562,669.5C 557.593,679.121 550.093,683.788 539.5,683.5C 524.039,683.041 515.706,675.041 514.5,659.5C 514.611,657.286 515.278,655.286 516.5,653.5 Z"
       id="path30" />
  </g>
  <g
     id="g31">
    <path
       style="opacity:1"
       fill="#fdb5c5"
       d="M 828.5,703.5 C 813.719,707.353 806.386,717.019 806.5,732.5C 807.736,742.044 809.903,751.377 813,760.5C 815.22,791.294 801.386,810.794 771.5,819C 757.239,823.062 742.906,823.396 728.5,820C 720.069,817.285 711.735,814.285 703.5,811C 700.518,810.502 697.518,810.335 694.5,810.5C 692.712,805.193 690.212,800.193 687,795.5C 687.843,768.98 700.343,750.147 724.5,739C 734.462,735.167 744.795,733.5 755.5,734C 758.539,730.195 757.872,727.195 753.5,725C 740.803,722.926 729.136,725.426 718.5,732.5C 718.167,732.167 717.833,731.833 717.5,731.5C 731.1,705.516 733.1,678.682 723.5,651C 724.167,650 724.833,649 725.5,648C 765.203,648.603 797.703,664.103 823,694.5C 825.483,697.139 827.316,700.139 828.5,703.5 Z"
       id="path31" />
  </g>
  <g
     id="g32">
    <path
       style="opacity:1"
       fill="#f3707a"
       d="M 585.5,702.5 C 584.5,701.833 583.5,701.167 582.5,700.5C 572.484,684.71 576.484,679.21 594.5,684C 598.538,689.133 598.205,694.133 593.5,699C 591.182,700.993 588.516,702.159 585.5,702.5 Z"
       id="path32" />
  </g>
  <g
     id="g33">
    <path
       style="opacity:1"
       fill="#0a5c83"
       d="M 625.5,672.5 C 627.722,672.178 629.556,672.845 631,674.5C 631.088,690.298 638.922,696.798 654.5,694C 658.605,690.806 662.272,687.14 665.5,683C 671.08,681.739 672.913,683.906 671,689.5C 660.994,705.371 647.827,708.537 631.5,699C 623.102,691.369 621.102,682.535 625.5,672.5 Z"
       id="path33" />
  </g>
  <g
     id="g34">
    <path
       style="opacity:1"
       fill="#156d13"
       d="M 1095.5,570.5 C 1097.12,649.336 1094.12,728.003 1086.5,806.5C 1085.84,804.359 1085.5,802.025 1085.5,799.5C 1092.54,723.176 1095.87,646.843 1095.5,570.5 Z"
       id="path34" />
  </g>
  <g
     id="g35">
    <path
       style="opacity:1"
       fill="#0b5b83"
       d="M 582.5,700.5 C 583.5,701.167 584.5,701.833 585.5,702.5C 589.716,711.137 595.882,712.803 604,707.5C 607.293,708.138 608.293,710.138 607,713.5C 598.291,720.59 590.125,719.923 582.5,711.5C 573.971,714.202 566.804,712.202 561,705.5C 559.417,700.9 560.917,699.066 565.5,700C 568.188,702.694 571.355,704.527 575,705.5C 578.48,705.169 580.98,703.502 582.5,700.5 Z"
       id="path35" />
  </g>
  <g
     id="g36">
    <path
       style="opacity:1"
       fill="#025374"
       d="M 828.5,703.5 C 836.024,711.866 841.524,721.533 845,732.5C 864.614,799.457 840.447,840.29 772.5,855C 740.282,860.231 709.282,856.398 679.5,843.5C 671.172,835.026 670.339,825.692 677,815.5C 679.326,813.934 681.492,812.268 683.5,810.5C 687.167,810.5 690.833,810.5 694.5,810.5C 697.518,810.335 700.518,810.502 703.5,811C 711.735,814.285 720.069,817.285 728.5,820C 742.906,823.396 757.239,823.062 771.5,819C 801.386,810.794 815.22,791.294 813,760.5C 809.903,751.377 807.736,742.044 806.5,732.5C 806.386,717.019 813.719,707.353 828.5,703.5 Z"
       id="path36" />
  </g>
  <g
     id="g37">
    <path
       style="opacity:1"
       fill="#f36e78"
       d="M 683.5,810.5 C 681.492,812.268 679.326,813.934 677,815.5C 670.339,825.692 671.172,835.026 679.5,843.5C 600.901,839.274 522.234,836.94 443.5,836.5C 438.815,805.013 439.648,773.679 446,742.5C 447.157,733.004 450.991,724.838 457.5,718C 470.389,711.926 483.722,710.926 497.5,715C 515.331,720.156 529.498,730.323 540,745.5C 542.439,748.612 545.439,750.945 549,752.5C 567.513,747.293 586.013,747.46 604.5,753C 633.074,760.943 656.908,776.11 676,798.5C 678.759,802.407 681.259,806.407 683.5,810.5 Z"
       id="path37" />
  </g>
  <g
     id="g38">
    <path
       style="opacity:1"
       fill="#146a13"
       d="M 1075.5,666.5 C 1076.07,697.053 1074.91,727.72 1072,758.5C 1071.5,756.527 1071.34,754.527 1071.5,752.5C 1073.08,723.846 1074.42,695.179 1075.5,666.5 Z"
       id="path38" />
  </g>
  <g
     id="g39">
    <path
       style="opacity:1"
       fill="#f9bad1"
       d="M 680.5,766.5 C 681.239,766.369 681.906,766.536 682.5,767C 679.826,772.183 677.993,777.683 677,783.5C 673.833,780.333 670.667,777.167 667.5,774C 672.223,771.978 676.557,769.478 680.5,766.5 Z"
       id="path39" />
  </g>
  <g
     id="g40">
    <path
       style="opacity:1"
       fill="#116810"
       d="M 314.5,975.5 C 290.209,927.284 274.542,876.284 267.5,822.5C 272.055,846.356 277.555,870.689 284,895.5C 292.698,922.766 302.865,949.432 314.5,975.5 Z"
       id="path40" />
  </g>
  <g
     id="g41">
    <path
       style="opacity:1"
       fill="#106910"
       d="M 619.5,850.5 C 559.171,849.227 498.838,848.06 438.5,847C 436.574,846.578 435.574,845.411 435.5,843.5C 435.435,843.062 435.601,842.728 436,842.5C 436.374,843.416 436.874,844.25 437.5,845C 502.194,846.194 562.861,848.027 619.5,850.5 Z"
       id="path41" />
  </g>
  <g
     id="g42">
    <path
       style="opacity:1"
       fill="#015d83"
       d="M 607.5,916.5 C 605.783,948.366 604.283,980.366 603,1012.5C 603.278,1011.58 603.778,1010.92 604.5,1010.5C 604.369,1011.24 604.536,1011.91 605,1012.5C 618.262,1011.63 631.595,1010.97 645,1010.5C 657.294,1009.45 664.294,1015.12 666,1027.5C 668.14,1045.03 660.306,1053.2 642.5,1052C 626.5,1052.67 610.5,1052.67 594.5,1052C 586.199,1051.92 578.199,1050.76 570.5,1048.5C 567.499,1046.97 564.332,1044.64 561,1041.5C 560.027,1039.61 559.36,1037.61 559,1035.5C 559.35,1011 559.184,986.667 558.5,962.5C 559.002,944.792 560.169,927.125 562,909.5C 563.933,896.9 571.267,890.9 584,891.5C 599.811,892.148 607.645,900.482 607.5,916.5 Z"
       id="path42" />
  </g>
  <g
     id="g43">
    <path
       style="opacity:1"
       fill="#1b6f19"
       d="M 1069.5,773.5 C 1070.65,777.646 1070.81,781.98 1070,786.5C 1068.05,806.573 1065.55,826.573 1062.5,846.5C 1062.65,848.32 1063.32,849.82 1064.5,851C 1063.75,852.487 1062.91,852.654 1062,851.5C 1057.14,881.347 1050.14,910.68 1041,939.5C 1036.45,953.141 1031.12,966.474 1025,979.5C 1022.39,984.397 1019.56,989.063 1016.5,993.5C 1023.81,979.208 1030.31,964.541 1036,949.5C 1054.16,892.181 1065.33,833.514 1069.5,773.5 Z"
       id="path43" />
  </g>
  <g
     id="g44">
    <path
       style="opacity:1"
       fill="#075b82"
       d="M 696.5,899.5 C 705.111,898.057 711.611,901.057 716,908.5C 718.888,914.277 721.221,920.277 723,926.5C 727.284,945.587 731.951,964.587 737,983.5C 738.393,987.286 740.059,990.952 742,994.5C 745.985,999.861 749.651,999.528 753,993.5C 761.314,974.892 768.648,955.892 775,936.5C 778.744,924.502 784.911,914.002 793.5,905C 801.188,901.649 806.021,904.149 808,912.5C 809.384,949.199 803.718,984.865 791,1019.5C 777.835,1049.17 755.335,1060.33 723.5,1053C 711.277,1046.77 702.444,1037.27 697,1024.5C 688.892,1002.24 685.392,979.243 686.5,955.5C 686.092,939.361 687.258,923.361 690,907.5C 691.305,904.039 693.471,901.372 696.5,899.5 Z"
       id="path44" />
  </g>
  <g
     id="g45">
    <path
       style="opacity:1"
       fill="#094473"
       d="M 607.5,916.5 C 607.166,947.858 606.166,979.191 604.5,1010.5C 603.778,1010.92 603.278,1011.58 603,1012.5C 604.283,980.366 605.783,948.366 607.5,916.5 Z"
       id="path45" />
  </g>
  <g
     id="g46">
    <path
       style="opacity:1"
       fill="#085b82"
       d="M 419.5,880.5 C 439.945,878.89 459.945,881.056 479.5,887C 505.428,897.024 516.928,915.857 514,943.5C 512.614,951.944 508.448,958.611 501.5,963.5C 513.743,970.91 522.576,981.243 528,994.5C 532.859,1023.95 521.025,1043.11 492.5,1052C 464.735,1059.09 437.401,1057.75 410.5,1048C 394.619,1041.46 386.786,1029.63 387,1012.5C 383.828,974.83 383.828,937.163 387,899.5C 390.091,890.083 396.591,884.583 406.5,883C 410.988,882.24 415.322,881.406 419.5,880.5 Z"
       id="path46" />
  </g>
  <g
     id="g47">
    <path
       style="opacity:1"
       fill="#f46c76"
       d="M 419.5,893.5 C 430.838,893.333 442.172,893.5 453.5,894C 466.766,894.978 478.766,899.311 489.5,907C 502.499,919.168 505.333,933.334 498,949.5C 493.936,953.786 489.103,956.952 483.5,959C 479.673,962.756 479.673,966.422 483.5,970C 492.732,973.53 500.898,978.696 508,985.5C 519.455,1000.51 519.289,1015.34 507.5,1030C 498.259,1036.78 487.925,1041.12 476.5,1043C 455.489,1046.47 435.155,1044.14 415.5,1036C 405.846,1032.51 400.679,1025.68 400,1015.5C 397.299,977.152 397.299,938.818 400,900.5C 400.833,899.667 401.667,898.833 402.5,898C 408.175,896 413.842,894.5 419.5,893.5 Z"
       id="path47" />
  </g>
  <g
     id="g48">
    <path
       style="opacity:1"
       fill="#085c83"
       d="M 438.5,980.5 C 452.107,978.636 464.774,981.136 476.5,988C 487.106,998.407 487.106,1008.74 476.5,1019C 465.933,1025.1 454.6,1027.1 442.5,1025C 434.133,1024.09 428.3,1019.93 425,1012.5C 423.796,1003.88 424.796,995.542 428,987.5C 430.998,984.262 434.498,981.929 438.5,980.5 Z"
       id="path48" />
  </g>
  <g
     id="g49">
    <path
       style="opacity:1"
       fill="#095c83"
       d="M 437.5,916.5 C 444.175,916.334 450.842,916.5 457.5,917C 475.082,920.998 480.249,931.165 473,947.5C 464.578,955.82 454.412,959.32 442.5,958C 428.493,955.661 422.66,947.495 425,933.5C 425.793,925.211 429.959,919.545 437.5,916.5 Z"
       id="path49" />
  </g>
  <g
     id="g50">
    <path
       style="opacity:1"
       fill="#f2f5f6"
       d="M 442.5,928.5 C 450.095,927.358 456.928,929.025 463,933.5C 464.123,936.956 463.29,939.79 460.5,942C 453.75,945.614 446.75,946.28 439.5,944C 437.109,939.656 436.942,935.156 439,930.5C 440.302,929.915 441.469,929.249 442.5,928.5 Z"
       id="path50" />
  </g>
  <g
     id="g51">
    <path
       style="opacity:1"
       fill="#f6f7f7"
       d="M 439.5,993.5 C 447.238,993.144 454.905,993.644 462.5,995C 465.759,996.211 468.592,998.044 471,1000.5C 471.482,1007.69 467.982,1011.53 460.5,1012C 454.167,1012.67 447.833,1012.67 441.5,1012C 440.069,1011.53 438.903,1010.7 438,1009.5C 437.071,1003.98 437.571,998.647 439.5,993.5 Z"
       id="path51" />
  </g>
  <g
     id="g52">
    <path
       style="opacity:1"
       fill="#174977"
       d="M 558.5,962.5 C 559.184,986.667 559.35,1011 559,1035.5C 559.36,1037.61 560.027,1039.61 561,1041.5C 564.332,1044.64 567.499,1046.97 570.5,1048.5C 562.368,1046.86 557.868,1041.86 557,1033.5C 556.905,1009.83 557.405,986.159 558.5,962.5 Z"
       id="path52" />
  </g>
  <g
     id="g53">
    <path
       style="opacity:1"
       fill="#f46c76"
       d="M 701.5,912.5 C 702.496,912.414 703.329,912.748 704,913.5C 705.862,917.419 707.529,921.419 709,925.5C 713.804,943.051 718.138,960.717 722,978.5C 724.725,989.283 729.558,998.949 736.5,1007.5C 742.143,1013.11 748.477,1013.94 755.5,1010C 759.846,1006.13 763.346,1001.63 766,996.5C 774.257,976.065 781.923,955.398 789,934.5C 791.246,929.674 793.746,925.008 796.5,920.5C 795.894,950.467 791.061,979.801 782,1008.5C 773.589,1035.95 755.422,1046.78 727.5,1041C 718.546,1036.71 712.379,1029.88 709,1020.5C 701.665,999.658 698.165,978.158 698.5,956C 698.931,941.403 699.931,926.903 701.5,912.5 Z"
       id="path53" />
  </g>
  <g
     id="g54">
    <path
       style="opacity:1"
       fill="#015c83"
       d="M 896.5,886.5 C 910.504,886.333 924.504,886.5 938.5,887C 954.28,890.027 960.447,899.527 957,915.5C 954.432,921.543 949.932,925.376 943.5,927C 925.464,927.922 907.464,928.922 889.5,930C 888.667,930.833 887.833,931.667 887,932.5C 886.391,937.861 886.558,943.195 887.5,948.5C 903.876,948.094 920.21,948.594 936.5,950C 943.823,953.47 947.49,959.303 947.5,967.5C 946.052,979.773 939.052,985.94 926.5,986C 913.487,986.167 900.487,986.667 887.5,987.5C 886.09,990.5 885.423,993.667 885.5,997C 885.976,1001.16 886.309,1005.33 886.5,1009.5C 907.207,1009.07 927.873,1009.57 948.5,1011C 956.714,1014.07 960.714,1020.07 960.5,1029C 960.338,1042.16 953.672,1049.16 940.5,1050C 913.5,1050.67 886.5,1050.67 859.5,1050C 848.863,1049.03 843.363,1043.2 843,1032.5C 842.333,996.167 842.333,959.833 843,923.5C 843.361,916.801 844.028,910.135 845,903.5C 847.344,896.492 852.177,892.326 859.5,891C 871.868,888.572 884.202,887.072 896.5,886.5 Z"
       id="path54" />
  </g>
  <g
     id="g57">
    <path
       style="opacity:1"
       fill="#0a660a"
       d="M 561.5,1124.5 C 593.633,1129.63 625.966,1132.63 658.5,1133.5C 673.995,1134.33 689.661,1134.83 705.5,1135C 658.211,1136.5 611.211,1133.5 564.5,1126C 563.263,1125.77 562.263,1125.27 561.5,1124.5 Z"
       id="path57" />
  </g>
  <g
     id="g58">
    <path
       style="opacity:1"
       fill="#246e20"
       d="M 606.5,1150.5 C 608.473,1149.84 610.639,1149.5 613,1149.5C 625.483,1150.59 637.983,1151.42 650.5,1152C 680.341,1152.31 710.008,1152.48 739.5,1152.5C 734.637,1152.18 729.97,1152.51 725.5,1153.5C 700.83,1154.71 676.163,1154.71 651.5,1153.5C 636.474,1152.85 621.474,1151.85 606.5,1150.5 Z"
       id="path58" />
  </g>
</svg>
